<svg width="382" height="382" viewBox="0 0 382 382" fill="none" xmlns="http://www.w3.org/2000/svg">
<path d="M134.947 311.611C125.027 310.662 117.763 301.875 118.722 291.984L138.669 86.2751C139.629 76.3842 148.448 69.1349 158.368 70.0834C168.288 71.0319 175.553 79.819 174.594 89.7099L154.646 295.419C153.687 305.31 144.867 312.559 134.947 311.611Z" fill="white"/>
<path d="M227.402 311.649C217.482 310.7 210.217 301.913 211.176 292.022L231.124 86.313C232.083 76.4221 240.903 69.1728 250.823 70.1213C260.743 71.0698 268.007 79.8569 267.048 89.7478L247.1 295.457C246.141 305.348 237.322 312.597 227.402 311.649Z" fill="white"/>
<path d="M69.9046 151.028C69.7307 141.134 77.6339 132.973 87.557 132.801L295.947 129.19C305.87 129.018 314.055 136.899 314.229 146.794C314.403 156.688 306.5 164.849 296.577 165.021L88.1868 168.633C78.2638 168.805 70.0785 160.923 69.9046 151.028Z" fill="white"/>
<path d="M69.1527 236.141C68.9788 226.246 76.882 218.086 86.8051 217.914L295.195 214.302C305.118 214.13 313.303 222.011 313.477 231.906C313.651 241.8 305.748 249.961 295.825 250.133L87.4349 253.745C77.5119 253.917 69.3267 246.035 69.1527 236.141Z" fill="white"/>
<path d="M118.291 17H75.1671C43.0423 17 17 42.9675 17 75V118M365 118V75C365 42.9675 338.958 17 306.833 17H263.709M118.291 365H75.1671C43.0423 365 17 339.033 17 307V264M365 264V307C365 339.033 338.958 365 306.833 365H263.709" stroke="white" stroke-width="34"/>
</svg>
